<svg xmlns="http://www.w3.org/2000/svg" width="40" height="40" viewBox="0 0 40 40">
  <g id="Group_4627" data-name="Group 4627" transform="translate(-1087 -897.717)">
    <circle id="Ellipse_76" data-name="Ellipse 76" cx="20" cy="20" r="20" transform="translate(1087 897.717)" fill="#fff"/>
    <g id="chat_black_24dp_2_" data-name="chat_black_24dp (2)" transform="translate(1095 905.717)">
      <path id="Path_1475" data-name="Path 1475" d="M0,0H24V24H0Z" fill="none"/>
      <path id="Path_1476" data-name="Path 1476" d="M4,4H20V16H5.17L4,17.17V4M4,2A2,2,0,0,0,2.01,4L2,22l4-4H20a2.006,2.006,0,0,0,2-2V4a2.006,2.006,0,0,0-2-2ZM6,12h8v2H6ZM6,9H18v2H6ZM6,6H18V8H6Z"/>
    </g>
  </g>
</svg>
