<svg xmlns="http://www.w3.org/2000/svg" width="40" height="40" viewBox="0 0 40 40">
  <g id="Group_4626" data-name="Group 4626" transform="translate(-1141 -897.717)">
    <circle id="Ellipse_74" data-name="Ellipse 74" cx="20" cy="20" r="20" transform="translate(1141 897.717)" fill="#fff"/>
    <g id="edit_black_24dp_1_" data-name="edit_black_24dp (1)" transform="translate(1149 905.717)">
      <path id="Path_1479" data-name="Path 1479" d="M0,0H24V24H0Z" fill="none"/>
      <path id="Path_1480" data-name="Path 1480" d="M14.06,9.02l.92.92L5.92,19H5v-.92l9.06-9.06M17.66,3a1,1,0,0,0-.7.29L15.13,5.12l3.75,3.75,1.83-1.83a1,1,0,0,0,0-1.41L18.37,3.29A.982.982,0,0,0,17.66,3Zm-3.6,3.19L3,17.25V21H6.75L17.81,9.94,14.06,6.19Z"/>
    </g>
  </g>
</svg>
